<?xml version="1.0" standalone="no"?>
<!DOCTYPE svg PUBLIC "-//W3C//DTD SVG 20010904//EN"
 "http://www.w3.org/TR/2001/REC-SVG-20010904/DTD/svg10.dtd">
<svg version="1.0" xmlns="http://www.w3.org/2000/svg"
 width="16.000000pt" height="16.000000pt" viewBox="0 0 16.000000 16.000000"
 preserveAspectRatio="xMidYMid meet">
<metadata>
Created by potrace 1.11, written by Peter Selinger 2001-2013
</metadata>
<g transform="translate(0.000000,16.000000) scale(0.012214,-0.012214)"
fill="#000000" stroke="none">
<path d="M1210 1272 c-8 -9 -27 -28 -43 -41 l-27 -24 -23 21 c-29 27 -63 28
-77 3 -14 -27 -4 -48 27 -56 24 -6 25 -7 10 -23 -15 -15 -18 -14 -40 6 -27 26
-50 28 -67 7 -17 -20 -9 -48 18 -61 21 -11 20 -13 -45 -72 l-68 -61 -30 20
c-64 43 -108 55 -186 50 -21 -1 -120 -59 -192 -112 -5 -4 -2 -19 6 -35 23 -44
1 -97 -68 -161 -83 -79 -124 -84 -188 -25 l-27 26 -47 -45 c-80 -77 -94 -93
-118 -144 -18 -36 -25 -67 -25 -112 0 -86 20 -133 104 -247 6 -8 -10 -38 -49
-90 -31 -43 -54 -80 -51 -83 3 -3 39 20 80 51 42 31 78 56 80 56 3 0 30 -18
62 -40 76 -53 142 -74 215 -67 83 7 136 40 232 145 l48 52 -29 25 c-37 31 -46
65 -28 108 15 36 76 103 119 132 31 20 91 22 113 5 17 -15 19 -13 86 89 65 98
65 184 2 280 l-23 34 72 81 c40 45 76 82 81 84 5 2 14 -7 20 -20 16 -32 42
-34 62 -3 16 25 16 27 -10 54 -22 23 -24 30 -14 44 9 12 17 14 28 7 8 -5 11
-10 7 -10 -21 0 17 -40 38 -40 38 0 45 44 12 78 l-26 27 23 30 c23 30 23 31 6
53 -22 26 -30 27 -50 4z"/>
</g>
</svg>
